%TF.GenerationSoftware,KiCad,Pcbnew,(5.1.10)-1*%
%TF.CreationDate,2021-11-09T18:22:06+08:00*%
%TF.ProjectId,mt3608,6d743336-3038-42e6-9b69-6361645f7063,rev?*%
%TF.SameCoordinates,Original*%
%TF.FileFunction,Paste,Top*%
%TF.FilePolarity,Positive*%
%FSLAX46Y46*%
G04 Gerber Fmt 4.6, Leading zero omitted, Abs format (unit mm)*
G04 Created by KiCad (PCBNEW (5.1.10)-1) date 2021-11-09 18:22:06*
%MOMM*%
%LPD*%
G01*
G04 APERTURE LIST*
%ADD10R,2.500000X1.800000*%
%ADD11R,1.000000X2.750000*%
%ADD12R,1.060000X0.650000*%
G04 APERTURE END LIST*
%TO.C,C1*%
G36*
G01*
X64295000Y-44455000D02*
X65245000Y-44455000D01*
G75*
G02*
X65495000Y-44705000I0J-250000D01*
G01*
X65495000Y-45380000D01*
G75*
G02*
X65245000Y-45630000I-250000J0D01*
G01*
X64295000Y-45630000D01*
G75*
G02*
X64045000Y-45380000I0J250000D01*
G01*
X64045000Y-44705000D01*
G75*
G02*
X64295000Y-44455000I250000J0D01*
G01*
G37*
G36*
G01*
X64295000Y-46530000D02*
X65245000Y-46530000D01*
G75*
G02*
X65495000Y-46780000I0J-250000D01*
G01*
X65495000Y-47455000D01*
G75*
G02*
X65245000Y-47705000I-250000J0D01*
G01*
X64295000Y-47705000D01*
G75*
G02*
X64045000Y-47455000I0J250000D01*
G01*
X64045000Y-46780000D01*
G75*
G02*
X64295000Y-46530000I250000J0D01*
G01*
G37*
%TD*%
%TO.C,C2*%
G36*
G01*
X47825000Y-45190000D02*
X48775000Y-45190000D01*
G75*
G02*
X49025000Y-45440000I0J-250000D01*
G01*
X49025000Y-46115000D01*
G75*
G02*
X48775000Y-46365000I-250000J0D01*
G01*
X47825000Y-46365000D01*
G75*
G02*
X47575000Y-46115000I0J250000D01*
G01*
X47575000Y-45440000D01*
G75*
G02*
X47825000Y-45190000I250000J0D01*
G01*
G37*
G36*
G01*
X47825000Y-43115000D02*
X48775000Y-43115000D01*
G75*
G02*
X49025000Y-43365000I0J-250000D01*
G01*
X49025000Y-44040000D01*
G75*
G02*
X48775000Y-44290000I-250000J0D01*
G01*
X47825000Y-44290000D01*
G75*
G02*
X47575000Y-44040000I0J250000D01*
G01*
X47575000Y-43365000D01*
G75*
G02*
X47825000Y-43115000I250000J0D01*
G01*
G37*
%TD*%
D10*
%TO.C,D1*%
X45530000Y-40130000D03*
X49530000Y-40130000D03*
%TD*%
D11*
%TO.C,L1*%
X57010000Y-40160000D03*
X54710000Y-40160000D03*
%TD*%
%TO.C,R1*%
G36*
G01*
X45299999Y-45150000D02*
X46200001Y-45150000D01*
G75*
G02*
X46450000Y-45399999I0J-249999D01*
G01*
X46450000Y-46100001D01*
G75*
G02*
X46200001Y-46350000I-249999J0D01*
G01*
X45299999Y-46350000D01*
G75*
G02*
X45050000Y-46100001I0J249999D01*
G01*
X45050000Y-45399999D01*
G75*
G02*
X45299999Y-45150000I249999J0D01*
G01*
G37*
G36*
G01*
X45299999Y-43150000D02*
X46200001Y-43150000D01*
G75*
G02*
X46450000Y-43399999I0J-249999D01*
G01*
X46450000Y-44100001D01*
G75*
G02*
X46200001Y-44350000I-249999J0D01*
G01*
X45299999Y-44350000D01*
G75*
G02*
X45050000Y-44100001I0J249999D01*
G01*
X45050000Y-43399999D01*
G75*
G02*
X45299999Y-43150000I249999J0D01*
G01*
G37*
%TD*%
%TO.C,R2*%
G36*
G01*
X51790001Y-49790000D02*
X50889999Y-49790000D01*
G75*
G02*
X50640000Y-49540001I0J249999D01*
G01*
X50640000Y-48839999D01*
G75*
G02*
X50889999Y-48590000I249999J0D01*
G01*
X51790001Y-48590000D01*
G75*
G02*
X52040000Y-48839999I0J-249999D01*
G01*
X52040000Y-49540001D01*
G75*
G02*
X51790001Y-49790000I-249999J0D01*
G01*
G37*
G36*
G01*
X51790001Y-47790000D02*
X50889999Y-47790000D01*
G75*
G02*
X50640000Y-47540001I0J249999D01*
G01*
X50640000Y-46839999D01*
G75*
G02*
X50889999Y-46590000I249999J0D01*
G01*
X51790001Y-46590000D01*
G75*
G02*
X52040000Y-46839999I0J-249999D01*
G01*
X52040000Y-47540001D01*
G75*
G02*
X51790001Y-47790000I-249999J0D01*
G01*
G37*
%TD*%
%TO.C,R3*%
G36*
G01*
X60490001Y-51860000D02*
X59589999Y-51860000D01*
G75*
G02*
X59340000Y-51610001I0J249999D01*
G01*
X59340000Y-50909999D01*
G75*
G02*
X59589999Y-50660000I249999J0D01*
G01*
X60490001Y-50660000D01*
G75*
G02*
X60740000Y-50909999I0J-249999D01*
G01*
X60740000Y-51610001D01*
G75*
G02*
X60490001Y-51860000I-249999J0D01*
G01*
G37*
G36*
G01*
X60490001Y-49860000D02*
X59589999Y-49860000D01*
G75*
G02*
X59340000Y-49610001I0J249999D01*
G01*
X59340000Y-48909999D01*
G75*
G02*
X59589999Y-48660000I249999J0D01*
G01*
X60490001Y-48660000D01*
G75*
G02*
X60740000Y-48909999I0J-249999D01*
G01*
X60740000Y-49610001D01*
G75*
G02*
X60490001Y-49860000I-249999J0D01*
G01*
G37*
%TD*%
D12*
%TO.C,U1*%
X55690000Y-44360000D03*
X55690000Y-45310000D03*
X55690000Y-46260000D03*
X57890000Y-46260000D03*
X57890000Y-44360000D03*
X57890000Y-45310000D03*
%TD*%
M02*
