%TF.GenerationSoftware,KiCad,Pcbnew,(5.1.10)-1*%
%TF.CreationDate,2021-11-09T18:22:06+08:00*%
%TF.ProjectId,mt3608,6d743336-3038-42e6-9b69-6361645f7063,rev?*%
%TF.SameCoordinates,Original*%
%TF.FileFunction,Legend,Bot*%
%TF.FilePolarity,Positive*%
%FSLAX46Y46*%
G04 Gerber Fmt 4.6, Leading zero omitted, Abs format (unit mm)*
G04 Created by KiCad (PCBNEW (5.1.10)-1) date 2021-11-09 18:22:06*
%MOMM*%
%LPD*%
G01*
G04 APERTURE LIST*
%ADD10C,0.150000*%
G04 APERTURE END LIST*
D10*
X53331904Y-47742857D02*
X53284285Y-47695238D01*
X53141428Y-47647619D01*
X53046190Y-47647619D01*
X52903333Y-47695238D01*
X52808095Y-47790476D01*
X52760476Y-47885714D01*
X52712857Y-48076190D01*
X52712857Y-48219047D01*
X52760476Y-48409523D01*
X52808095Y-48504761D01*
X52903333Y-48600000D01*
X53046190Y-48647619D01*
X53141428Y-48647619D01*
X53284285Y-48600000D01*
X53331904Y-48552380D01*
X53903333Y-47647619D02*
X53808095Y-47695238D01*
X53760476Y-47742857D01*
X53712857Y-47838095D01*
X53712857Y-48123809D01*
X53760476Y-48219047D01*
X53808095Y-48266666D01*
X53903333Y-48314285D01*
X54046190Y-48314285D01*
X54141428Y-48266666D01*
X54189047Y-48219047D01*
X54236666Y-48123809D01*
X54236666Y-47838095D01*
X54189047Y-47742857D01*
X54141428Y-47695238D01*
X54046190Y-47647619D01*
X53903333Y-47647619D01*
X54665238Y-48314285D02*
X54665238Y-47647619D01*
X54665238Y-48219047D02*
X54712857Y-48266666D01*
X54808095Y-48314285D01*
X54950952Y-48314285D01*
X55046190Y-48266666D01*
X55093809Y-48171428D01*
X55093809Y-47647619D01*
X55474761Y-48314285D02*
X55712857Y-47647619D01*
X55950952Y-48314285D01*
X56712857Y-47695238D02*
X56617619Y-47647619D01*
X56427142Y-47647619D01*
X56331904Y-47695238D01*
X56284285Y-47790476D01*
X56284285Y-48171428D01*
X56331904Y-48266666D01*
X56427142Y-48314285D01*
X56617619Y-48314285D01*
X56712857Y-48266666D01*
X56760476Y-48171428D01*
X56760476Y-48076190D01*
X56284285Y-47980952D01*
X57189047Y-47647619D02*
X57189047Y-48314285D01*
X57189047Y-48123809D02*
X57236666Y-48219047D01*
X57284285Y-48266666D01*
X57379523Y-48314285D01*
X57474761Y-48314285D01*
X57665238Y-48314285D02*
X58046190Y-48314285D01*
X57808095Y-48647619D02*
X57808095Y-47790476D01*
X57855714Y-47695238D01*
X57950952Y-47647619D01*
X58046190Y-47647619D01*
X58760476Y-47695238D02*
X58665238Y-47647619D01*
X58474761Y-47647619D01*
X58379523Y-47695238D01*
X58331904Y-47790476D01*
X58331904Y-48171428D01*
X58379523Y-48266666D01*
X58474761Y-48314285D01*
X58665238Y-48314285D01*
X58760476Y-48266666D01*
X58808095Y-48171428D01*
X58808095Y-48076190D01*
X58331904Y-47980952D01*
X59236666Y-47647619D02*
X59236666Y-48314285D01*
X59236666Y-48123809D02*
X59284285Y-48219047D01*
X59331904Y-48266666D01*
X59427142Y-48314285D01*
X59522380Y-48314285D01*
X53256190Y-49471428D02*
X53399047Y-49423809D01*
X53446666Y-49376190D01*
X53494285Y-49280952D01*
X53494285Y-49138095D01*
X53446666Y-49042857D01*
X53399047Y-48995238D01*
X53303809Y-48947619D01*
X52922857Y-48947619D01*
X52922857Y-49947619D01*
X53256190Y-49947619D01*
X53351428Y-49900000D01*
X53399047Y-49852380D01*
X53446666Y-49757142D01*
X53446666Y-49661904D01*
X53399047Y-49566666D01*
X53351428Y-49519047D01*
X53256190Y-49471428D01*
X52922857Y-49471428D01*
X54065714Y-48947619D02*
X53970476Y-48995238D01*
X53922857Y-49042857D01*
X53875238Y-49138095D01*
X53875238Y-49423809D01*
X53922857Y-49519047D01*
X53970476Y-49566666D01*
X54065714Y-49614285D01*
X54208571Y-49614285D01*
X54303809Y-49566666D01*
X54351428Y-49519047D01*
X54399047Y-49423809D01*
X54399047Y-49138095D01*
X54351428Y-49042857D01*
X54303809Y-48995238D01*
X54208571Y-48947619D01*
X54065714Y-48947619D01*
X54970476Y-48947619D02*
X54875238Y-48995238D01*
X54827619Y-49042857D01*
X54780000Y-49138095D01*
X54780000Y-49423809D01*
X54827619Y-49519047D01*
X54875238Y-49566666D01*
X54970476Y-49614285D01*
X55113333Y-49614285D01*
X55208571Y-49566666D01*
X55256190Y-49519047D01*
X55303809Y-49423809D01*
X55303809Y-49138095D01*
X55256190Y-49042857D01*
X55208571Y-48995238D01*
X55113333Y-48947619D01*
X54970476Y-48947619D01*
X55684761Y-48995238D02*
X55780000Y-48947619D01*
X55970476Y-48947619D01*
X56065714Y-48995238D01*
X56113333Y-49090476D01*
X56113333Y-49138095D01*
X56065714Y-49233333D01*
X55970476Y-49280952D01*
X55827619Y-49280952D01*
X55732380Y-49328571D01*
X55684761Y-49423809D01*
X55684761Y-49471428D01*
X55732380Y-49566666D01*
X55827619Y-49614285D01*
X55970476Y-49614285D01*
X56065714Y-49566666D01*
X56399047Y-49614285D02*
X56780000Y-49614285D01*
X56541904Y-49947619D02*
X56541904Y-49090476D01*
X56589523Y-48995238D01*
X56684761Y-48947619D01*
X56780000Y-48947619D01*
M02*
