%TF.GenerationSoftware,KiCad,Pcbnew,(5.1.10)-1*%
%TF.CreationDate,2021-11-09T18:22:06+08:00*%
%TF.ProjectId,mt3608,6d743336-3038-42e6-9b69-6361645f7063,rev?*%
%TF.SameCoordinates,Original*%
%TF.FileFunction,Copper,L2,Bot*%
%TF.FilePolarity,Positive*%
%FSLAX46Y46*%
G04 Gerber Fmt 4.6, Leading zero omitted, Abs format (unit mm)*
G04 Created by KiCad (PCBNEW (5.1.10)-1) date 2021-11-09 18:22:06*
%MOMM*%
%LPD*%
G01*
G04 APERTURE LIST*
%TA.AperFunction,SMDPad,CuDef*%
%ADD10R,1.319000X1.319000*%
%TD*%
%TA.AperFunction,SMDPad,CuDef*%
%ADD11C,0.100000*%
%TD*%
%TA.AperFunction,ComponentPad*%
%ADD12R,1.700000X1.700000*%
%TD*%
%TA.AperFunction,ComponentPad*%
%ADD13O,1.700000X1.700000*%
%TD*%
%TA.AperFunction,ViaPad*%
%ADD14C,0.800000*%
%TD*%
%TA.AperFunction,Conductor*%
%ADD15C,0.254000*%
%TD*%
%TA.AperFunction,Conductor*%
%ADD16C,0.100000*%
%TD*%
G04 APERTURE END LIST*
D10*
%TO.P,,1*%
%TO.N,N/C*%
X69590000Y-44630000D03*
X71590000Y-44630000D03*
%TA.AperFunction,SMDPad,CuDef*%
D11*
G36*
X69580792Y-45289436D02*
G01*
X69516486Y-45285390D01*
X69452882Y-45275088D01*
X69390587Y-45258629D01*
X69330195Y-45236170D01*
X69272283Y-45207924D01*
X69217404Y-45174162D01*
X69166082Y-45135206D01*
X69118805Y-45091428D01*
X69076027Y-45043245D01*
X69038154Y-44991118D01*
X69005549Y-44935544D01*
X68978522Y-44877053D01*
X68957332Y-44816204D01*
X68942182Y-44753578D01*
X68933214Y-44689772D01*
X68930516Y-44625396D01*
X68934113Y-44561063D01*
X68943970Y-44497389D01*
X68959994Y-44434981D01*
X68982031Y-44374433D01*
X69009872Y-44316326D01*
X69043250Y-44261212D01*
X69081847Y-44209619D01*
X69125294Y-44162038D01*
X69173177Y-44118924D01*
X69225038Y-44080688D01*
X69280384Y-44047696D01*
X69338684Y-44020262D01*
X69399384Y-43998648D01*
X69461902Y-43983060D01*
X69525644Y-43973648D01*
X69590000Y-43970500D01*
X71590000Y-43970500D01*
X71599208Y-43970564D01*
X71610810Y-43971294D01*
X71622360Y-43971294D01*
X71642791Y-43973306D01*
X71663514Y-43974610D01*
X71675129Y-43976492D01*
X71686769Y-43977638D01*
X71706765Y-43981615D01*
X71727118Y-43984912D01*
X71738629Y-43987953D01*
X71750245Y-43990264D01*
X71769619Y-43996141D01*
X71789413Y-44001371D01*
X71800712Y-44005574D01*
X71812179Y-44009052D01*
X71830738Y-44016739D01*
X71849805Y-44023830D01*
X71860778Y-44029182D01*
X71871973Y-44033819D01*
X71889573Y-44043226D01*
X71907717Y-44052076D01*
X71918234Y-44058546D01*
X71929051Y-44064328D01*
X71945527Y-44075337D01*
X71962596Y-44085838D01*
X71972540Y-44093387D01*
X71982864Y-44100285D01*
X71998080Y-44112773D01*
X72013918Y-44124794D01*
X72023191Y-44133381D01*
X72032893Y-44141343D01*
X72046697Y-44155147D01*
X72061195Y-44168572D01*
X72069687Y-44178137D01*
X72078657Y-44187107D01*
X72090964Y-44202103D01*
X72103973Y-44216755D01*
X72111571Y-44227212D01*
X72119715Y-44237136D01*
X72130409Y-44253140D01*
X72141846Y-44268882D01*
X72148461Y-44280157D01*
X72155672Y-44290949D01*
X72164680Y-44307802D01*
X72174451Y-44324456D01*
X72179994Y-44336452D01*
X72186181Y-44348027D01*
X72193437Y-44365545D01*
X72201478Y-44382947D01*
X72205875Y-44395574D01*
X72210948Y-44407821D01*
X72216408Y-44425821D01*
X72222668Y-44443796D01*
X72225845Y-44456927D01*
X72229736Y-44469755D01*
X72233382Y-44488084D01*
X72237818Y-44506422D01*
X72239717Y-44519935D01*
X72242362Y-44533231D01*
X72244179Y-44551682D01*
X72246786Y-44570228D01*
X72247364Y-44584012D01*
X72248706Y-44597640D01*
X72248706Y-44616040D01*
X72249484Y-44634604D01*
X72248706Y-44648519D01*
X72248706Y-44662360D01*
X72246916Y-44680534D01*
X72245887Y-44698937D01*
X72243733Y-44712854D01*
X72242362Y-44726769D01*
X72238826Y-44744546D01*
X72236030Y-44762611D01*
X72232491Y-44776393D01*
X72229736Y-44790245D01*
X72224519Y-44807444D01*
X72220006Y-44825019D01*
X72215088Y-44838531D01*
X72210948Y-44852179D01*
X72204130Y-44868641D01*
X72197969Y-44885567D01*
X72191693Y-44898666D01*
X72186181Y-44911973D01*
X72177842Y-44927574D01*
X72170128Y-44943674D01*
X72162534Y-44956214D01*
X72155672Y-44969051D01*
X72145919Y-44983647D01*
X72136750Y-44998788D01*
X72127878Y-45010647D01*
X72119715Y-45022864D01*
X72108675Y-45036317D01*
X72098153Y-45050381D01*
X72088069Y-45061424D01*
X72078657Y-45072893D01*
X72066456Y-45085094D01*
X72054706Y-45097962D01*
X72043481Y-45108069D01*
X72032893Y-45118657D01*
X72019665Y-45129513D01*
X72006823Y-45141076D01*
X71994548Y-45150126D01*
X71982864Y-45159715D01*
X71968748Y-45169147D01*
X71954962Y-45179312D01*
X71941736Y-45187196D01*
X71929051Y-45195672D01*
X71914206Y-45203607D01*
X71899616Y-45212304D01*
X71885571Y-45218913D01*
X71871973Y-45226181D01*
X71856552Y-45232569D01*
X71841316Y-45239738D01*
X71826549Y-45244996D01*
X71812179Y-45250948D01*
X71796344Y-45255752D01*
X71780616Y-45261352D01*
X71765272Y-45265178D01*
X71750245Y-45269736D01*
X71734154Y-45272937D01*
X71718098Y-45276940D01*
X71702301Y-45279273D01*
X71686769Y-45282362D01*
X71670577Y-45283957D01*
X71654356Y-45286352D01*
X71638272Y-45287139D01*
X71622360Y-45288706D01*
X71606232Y-45288706D01*
X71590000Y-45289500D01*
X69590000Y-45289500D01*
X69580792Y-45289436D01*
G37*
%TD.AperFunction*%
%TD*%
%TA.AperFunction,SMDPad,CuDef*%
%TO.P,,1*%
%TO.N,N/C*%
G36*
X69700792Y-43869436D02*
G01*
X69636486Y-43865390D01*
X69572882Y-43855088D01*
X69510587Y-43838629D01*
X69450195Y-43816170D01*
X69392283Y-43787924D01*
X69337404Y-43754162D01*
X69286082Y-43715206D01*
X69238805Y-43671428D01*
X69196027Y-43623245D01*
X69158154Y-43571118D01*
X69125549Y-43515544D01*
X69098522Y-43457053D01*
X69077332Y-43396204D01*
X69062182Y-43333578D01*
X69053214Y-43269772D01*
X69050516Y-43205396D01*
X69054113Y-43141063D01*
X69063970Y-43077389D01*
X69079994Y-43014981D01*
X69102031Y-42954433D01*
X69129872Y-42896326D01*
X69163250Y-42841212D01*
X69201847Y-42789619D01*
X69245294Y-42742038D01*
X69293177Y-42698924D01*
X69345038Y-42660688D01*
X69400384Y-42627696D01*
X69458684Y-42600262D01*
X69519384Y-42578648D01*
X69581902Y-42563060D01*
X69645644Y-42553648D01*
X69710000Y-42550500D01*
X71710000Y-42550500D01*
X71719208Y-42550564D01*
X71730810Y-42551294D01*
X71742360Y-42551294D01*
X71762791Y-42553306D01*
X71783514Y-42554610D01*
X71795129Y-42556492D01*
X71806769Y-42557638D01*
X71826765Y-42561615D01*
X71847118Y-42564912D01*
X71858629Y-42567953D01*
X71870245Y-42570264D01*
X71889619Y-42576141D01*
X71909413Y-42581371D01*
X71920712Y-42585574D01*
X71932179Y-42589052D01*
X71950738Y-42596739D01*
X71969805Y-42603830D01*
X71980778Y-42609182D01*
X71991973Y-42613819D01*
X72009573Y-42623226D01*
X72027717Y-42632076D01*
X72038234Y-42638546D01*
X72049051Y-42644328D01*
X72065527Y-42655337D01*
X72082596Y-42665838D01*
X72092540Y-42673387D01*
X72102864Y-42680285D01*
X72118080Y-42692773D01*
X72133918Y-42704794D01*
X72143191Y-42713381D01*
X72152893Y-42721343D01*
X72166697Y-42735147D01*
X72181195Y-42748572D01*
X72189687Y-42758137D01*
X72198657Y-42767107D01*
X72210964Y-42782103D01*
X72223973Y-42796755D01*
X72231571Y-42807212D01*
X72239715Y-42817136D01*
X72250409Y-42833140D01*
X72261846Y-42848882D01*
X72268461Y-42860157D01*
X72275672Y-42870949D01*
X72284680Y-42887802D01*
X72294451Y-42904456D01*
X72299994Y-42916452D01*
X72306181Y-42928027D01*
X72313437Y-42945545D01*
X72321478Y-42962947D01*
X72325875Y-42975574D01*
X72330948Y-42987821D01*
X72336408Y-43005821D01*
X72342668Y-43023796D01*
X72345845Y-43036927D01*
X72349736Y-43049755D01*
X72353382Y-43068084D01*
X72357818Y-43086422D01*
X72359717Y-43099935D01*
X72362362Y-43113231D01*
X72364179Y-43131682D01*
X72366786Y-43150228D01*
X72367364Y-43164012D01*
X72368706Y-43177640D01*
X72368706Y-43196040D01*
X72369484Y-43214604D01*
X72368706Y-43228519D01*
X72368706Y-43242360D01*
X72366916Y-43260534D01*
X72365887Y-43278937D01*
X72363733Y-43292854D01*
X72362362Y-43306769D01*
X72358826Y-43324546D01*
X72356030Y-43342611D01*
X72352491Y-43356393D01*
X72349736Y-43370245D01*
X72344519Y-43387444D01*
X72340006Y-43405019D01*
X72335088Y-43418531D01*
X72330948Y-43432179D01*
X72324130Y-43448641D01*
X72317969Y-43465567D01*
X72311693Y-43478666D01*
X72306181Y-43491973D01*
X72297842Y-43507574D01*
X72290128Y-43523674D01*
X72282534Y-43536214D01*
X72275672Y-43549051D01*
X72265919Y-43563647D01*
X72256750Y-43578788D01*
X72247878Y-43590647D01*
X72239715Y-43602864D01*
X72228675Y-43616317D01*
X72218153Y-43630381D01*
X72208069Y-43641424D01*
X72198657Y-43652893D01*
X72186456Y-43665094D01*
X72174706Y-43677962D01*
X72163481Y-43688069D01*
X72152893Y-43698657D01*
X72139665Y-43709513D01*
X72126823Y-43721076D01*
X72114548Y-43730126D01*
X72102864Y-43739715D01*
X72088748Y-43749147D01*
X72074962Y-43759312D01*
X72061736Y-43767196D01*
X72049051Y-43775672D01*
X72034206Y-43783607D01*
X72019616Y-43792304D01*
X72005571Y-43798913D01*
X71991973Y-43806181D01*
X71976552Y-43812569D01*
X71961316Y-43819738D01*
X71946549Y-43824996D01*
X71932179Y-43830948D01*
X71916344Y-43835752D01*
X71900616Y-43841352D01*
X71885272Y-43845178D01*
X71870245Y-43849736D01*
X71854154Y-43852937D01*
X71838098Y-43856940D01*
X71822301Y-43859273D01*
X71806769Y-43862362D01*
X71790577Y-43863957D01*
X71774356Y-43866352D01*
X71758272Y-43867139D01*
X71742360Y-43868706D01*
X71726232Y-43868706D01*
X71710000Y-43869500D01*
X69710000Y-43869500D01*
X69700792Y-43869436D01*
G37*
%TD.AperFunction*%
D10*
X71710000Y-43210000D03*
X69710000Y-43210000D03*
%TD*%
%TA.AperFunction,SMDPad,CuDef*%
D11*
%TO.P,,1*%
%TO.N,N/C*%
G36*
X40649208Y-46952564D02*
G01*
X40713514Y-46956610D01*
X40777118Y-46966912D01*
X40839413Y-46983371D01*
X40899805Y-47005830D01*
X40957717Y-47034076D01*
X41012596Y-47067838D01*
X41063918Y-47106794D01*
X41111195Y-47150572D01*
X41153973Y-47198755D01*
X41191846Y-47250882D01*
X41224451Y-47306456D01*
X41251478Y-47364947D01*
X41272668Y-47425796D01*
X41287818Y-47488422D01*
X41296786Y-47552228D01*
X41299484Y-47616604D01*
X41295887Y-47680937D01*
X41286030Y-47744611D01*
X41270006Y-47807019D01*
X41247969Y-47867567D01*
X41220128Y-47925674D01*
X41186750Y-47980788D01*
X41148153Y-48032381D01*
X41104706Y-48079962D01*
X41056823Y-48123076D01*
X41004962Y-48161312D01*
X40949616Y-48194304D01*
X40891316Y-48221738D01*
X40830616Y-48243352D01*
X40768098Y-48258940D01*
X40704356Y-48268352D01*
X40640000Y-48271500D01*
X38640000Y-48271500D01*
X38630792Y-48271436D01*
X38619190Y-48270706D01*
X38607640Y-48270706D01*
X38587209Y-48268694D01*
X38566486Y-48267390D01*
X38554871Y-48265508D01*
X38543231Y-48264362D01*
X38523235Y-48260385D01*
X38502882Y-48257088D01*
X38491371Y-48254047D01*
X38479755Y-48251736D01*
X38460381Y-48245859D01*
X38440587Y-48240629D01*
X38429288Y-48236426D01*
X38417821Y-48232948D01*
X38399262Y-48225261D01*
X38380195Y-48218170D01*
X38369222Y-48212818D01*
X38358027Y-48208181D01*
X38340427Y-48198774D01*
X38322283Y-48189924D01*
X38311766Y-48183454D01*
X38300949Y-48177672D01*
X38284473Y-48166663D01*
X38267404Y-48156162D01*
X38257460Y-48148613D01*
X38247136Y-48141715D01*
X38231920Y-48129227D01*
X38216082Y-48117206D01*
X38206809Y-48108619D01*
X38197107Y-48100657D01*
X38183303Y-48086853D01*
X38168805Y-48073428D01*
X38160313Y-48063863D01*
X38151343Y-48054893D01*
X38139036Y-48039897D01*
X38126027Y-48025245D01*
X38118429Y-48014788D01*
X38110285Y-48004864D01*
X38099591Y-47988860D01*
X38088154Y-47973118D01*
X38081539Y-47961843D01*
X38074328Y-47951051D01*
X38065320Y-47934198D01*
X38055549Y-47917544D01*
X38050006Y-47905548D01*
X38043819Y-47893973D01*
X38036563Y-47876455D01*
X38028522Y-47859053D01*
X38024125Y-47846426D01*
X38019052Y-47834179D01*
X38013592Y-47816179D01*
X38007332Y-47798204D01*
X38004155Y-47785073D01*
X38000264Y-47772245D01*
X37996618Y-47753916D01*
X37992182Y-47735578D01*
X37990283Y-47722065D01*
X37987638Y-47708769D01*
X37985821Y-47690318D01*
X37983214Y-47671772D01*
X37982636Y-47657988D01*
X37981294Y-47644360D01*
X37981294Y-47625960D01*
X37980516Y-47607396D01*
X37981294Y-47593481D01*
X37981294Y-47579640D01*
X37983084Y-47561466D01*
X37984113Y-47543063D01*
X37986267Y-47529146D01*
X37987638Y-47515231D01*
X37991174Y-47497454D01*
X37993970Y-47479389D01*
X37997509Y-47465607D01*
X38000264Y-47451755D01*
X38005481Y-47434556D01*
X38009994Y-47416981D01*
X38014912Y-47403469D01*
X38019052Y-47389821D01*
X38025870Y-47373359D01*
X38032031Y-47356433D01*
X38038307Y-47343334D01*
X38043819Y-47330027D01*
X38052158Y-47314426D01*
X38059872Y-47298326D01*
X38067466Y-47285786D01*
X38074328Y-47272949D01*
X38084081Y-47258353D01*
X38093250Y-47243212D01*
X38102122Y-47231353D01*
X38110285Y-47219136D01*
X38121325Y-47205683D01*
X38131847Y-47191619D01*
X38141931Y-47180576D01*
X38151343Y-47169107D01*
X38163544Y-47156906D01*
X38175294Y-47144038D01*
X38186519Y-47133931D01*
X38197107Y-47123343D01*
X38210335Y-47112487D01*
X38223177Y-47100924D01*
X38235452Y-47091874D01*
X38247136Y-47082285D01*
X38261252Y-47072853D01*
X38275038Y-47062688D01*
X38288264Y-47054804D01*
X38300949Y-47046328D01*
X38315794Y-47038393D01*
X38330384Y-47029696D01*
X38344429Y-47023087D01*
X38358027Y-47015819D01*
X38373448Y-47009431D01*
X38388684Y-47002262D01*
X38403451Y-46997004D01*
X38417821Y-46991052D01*
X38433656Y-46986248D01*
X38449384Y-46980648D01*
X38464728Y-46976822D01*
X38479755Y-46972264D01*
X38495846Y-46969063D01*
X38511902Y-46965060D01*
X38527699Y-46962727D01*
X38543231Y-46959638D01*
X38559423Y-46958043D01*
X38575644Y-46955648D01*
X38591728Y-46954861D01*
X38607640Y-46953294D01*
X38623768Y-46953294D01*
X38640000Y-46952500D01*
X40640000Y-46952500D01*
X40649208Y-46952564D01*
G37*
%TD.AperFunction*%
D10*
X38640000Y-47612000D03*
X40640000Y-47612000D03*
%TD*%
%TO.P,,1*%
%TO.N,N/C*%
X39570000Y-46590000D03*
X39570000Y-48590000D03*
%TA.AperFunction,SMDPad,CuDef*%
D11*
G36*
X38910564Y-46580792D02*
G01*
X38914610Y-46516486D01*
X38924912Y-46452882D01*
X38941371Y-46390587D01*
X38963830Y-46330195D01*
X38992076Y-46272283D01*
X39025838Y-46217404D01*
X39064794Y-46166082D01*
X39108572Y-46118805D01*
X39156755Y-46076027D01*
X39208882Y-46038154D01*
X39264456Y-46005549D01*
X39322947Y-45978522D01*
X39383796Y-45957332D01*
X39446422Y-45942182D01*
X39510228Y-45933214D01*
X39574604Y-45930516D01*
X39638937Y-45934113D01*
X39702611Y-45943970D01*
X39765019Y-45959994D01*
X39825567Y-45982031D01*
X39883674Y-46009872D01*
X39938788Y-46043250D01*
X39990381Y-46081847D01*
X40037962Y-46125294D01*
X40081076Y-46173177D01*
X40119312Y-46225038D01*
X40152304Y-46280384D01*
X40179738Y-46338684D01*
X40201352Y-46399384D01*
X40216940Y-46461902D01*
X40226352Y-46525644D01*
X40229500Y-46590000D01*
X40229500Y-48590000D01*
X40229436Y-48599208D01*
X40228706Y-48610810D01*
X40228706Y-48622360D01*
X40226694Y-48642791D01*
X40225390Y-48663514D01*
X40223508Y-48675129D01*
X40222362Y-48686769D01*
X40218385Y-48706765D01*
X40215088Y-48727118D01*
X40212047Y-48738629D01*
X40209736Y-48750245D01*
X40203859Y-48769619D01*
X40198629Y-48789413D01*
X40194426Y-48800712D01*
X40190948Y-48812179D01*
X40183261Y-48830738D01*
X40176170Y-48849805D01*
X40170818Y-48860778D01*
X40166181Y-48871973D01*
X40156774Y-48889573D01*
X40147924Y-48907717D01*
X40141454Y-48918234D01*
X40135672Y-48929051D01*
X40124663Y-48945527D01*
X40114162Y-48962596D01*
X40106613Y-48972540D01*
X40099715Y-48982864D01*
X40087227Y-48998080D01*
X40075206Y-49013918D01*
X40066619Y-49023191D01*
X40058657Y-49032893D01*
X40044853Y-49046697D01*
X40031428Y-49061195D01*
X40021863Y-49069687D01*
X40012893Y-49078657D01*
X39997897Y-49090964D01*
X39983245Y-49103973D01*
X39972788Y-49111571D01*
X39962864Y-49119715D01*
X39946860Y-49130409D01*
X39931118Y-49141846D01*
X39919843Y-49148461D01*
X39909051Y-49155672D01*
X39892198Y-49164680D01*
X39875544Y-49174451D01*
X39863548Y-49179994D01*
X39851973Y-49186181D01*
X39834455Y-49193437D01*
X39817053Y-49201478D01*
X39804426Y-49205875D01*
X39792179Y-49210948D01*
X39774179Y-49216408D01*
X39756204Y-49222668D01*
X39743073Y-49225845D01*
X39730245Y-49229736D01*
X39711916Y-49233382D01*
X39693578Y-49237818D01*
X39680065Y-49239717D01*
X39666769Y-49242362D01*
X39648318Y-49244179D01*
X39629772Y-49246786D01*
X39615988Y-49247364D01*
X39602360Y-49248706D01*
X39583960Y-49248706D01*
X39565396Y-49249484D01*
X39551481Y-49248706D01*
X39537640Y-49248706D01*
X39519466Y-49246916D01*
X39501063Y-49245887D01*
X39487146Y-49243733D01*
X39473231Y-49242362D01*
X39455454Y-49238826D01*
X39437389Y-49236030D01*
X39423607Y-49232491D01*
X39409755Y-49229736D01*
X39392556Y-49224519D01*
X39374981Y-49220006D01*
X39361469Y-49215088D01*
X39347821Y-49210948D01*
X39331359Y-49204130D01*
X39314433Y-49197969D01*
X39301334Y-49191693D01*
X39288027Y-49186181D01*
X39272426Y-49177842D01*
X39256326Y-49170128D01*
X39243786Y-49162534D01*
X39230949Y-49155672D01*
X39216353Y-49145919D01*
X39201212Y-49136750D01*
X39189353Y-49127878D01*
X39177136Y-49119715D01*
X39163683Y-49108675D01*
X39149619Y-49098153D01*
X39138576Y-49088069D01*
X39127107Y-49078657D01*
X39114906Y-49066456D01*
X39102038Y-49054706D01*
X39091931Y-49043481D01*
X39081343Y-49032893D01*
X39070487Y-49019665D01*
X39058924Y-49006823D01*
X39049874Y-48994548D01*
X39040285Y-48982864D01*
X39030853Y-48968748D01*
X39020688Y-48954962D01*
X39012804Y-48941736D01*
X39004328Y-48929051D01*
X38996393Y-48914206D01*
X38987696Y-48899616D01*
X38981087Y-48885571D01*
X38973819Y-48871973D01*
X38967431Y-48856552D01*
X38960262Y-48841316D01*
X38955004Y-48826549D01*
X38949052Y-48812179D01*
X38944248Y-48796344D01*
X38938648Y-48780616D01*
X38934822Y-48765272D01*
X38930264Y-48750245D01*
X38927063Y-48734154D01*
X38923060Y-48718098D01*
X38920727Y-48702301D01*
X38917638Y-48686769D01*
X38916043Y-48670577D01*
X38913648Y-48654356D01*
X38912861Y-48638272D01*
X38911294Y-48622360D01*
X38911294Y-48606232D01*
X38910500Y-48590000D01*
X38910500Y-46590000D01*
X38910564Y-46580792D01*
G37*
%TD.AperFunction*%
%TD*%
%TA.AperFunction,SMDPad,CuDef*%
%TO.P,,1*%
%TO.N,N/C*%
G36*
X40679208Y-45550564D02*
G01*
X40743514Y-45554610D01*
X40807118Y-45564912D01*
X40869413Y-45581371D01*
X40929805Y-45603830D01*
X40987717Y-45632076D01*
X41042596Y-45665838D01*
X41093918Y-45704794D01*
X41141195Y-45748572D01*
X41183973Y-45796755D01*
X41221846Y-45848882D01*
X41254451Y-45904456D01*
X41281478Y-45962947D01*
X41302668Y-46023796D01*
X41317818Y-46086422D01*
X41326786Y-46150228D01*
X41329484Y-46214604D01*
X41325887Y-46278937D01*
X41316030Y-46342611D01*
X41300006Y-46405019D01*
X41277969Y-46465567D01*
X41250128Y-46523674D01*
X41216750Y-46578788D01*
X41178153Y-46630381D01*
X41134706Y-46677962D01*
X41086823Y-46721076D01*
X41034962Y-46759312D01*
X40979616Y-46792304D01*
X40921316Y-46819738D01*
X40860616Y-46841352D01*
X40798098Y-46856940D01*
X40734356Y-46866352D01*
X40670000Y-46869500D01*
X38670000Y-46869500D01*
X38660792Y-46869436D01*
X38649190Y-46868706D01*
X38637640Y-46868706D01*
X38617209Y-46866694D01*
X38596486Y-46865390D01*
X38584871Y-46863508D01*
X38573231Y-46862362D01*
X38553235Y-46858385D01*
X38532882Y-46855088D01*
X38521371Y-46852047D01*
X38509755Y-46849736D01*
X38490381Y-46843859D01*
X38470587Y-46838629D01*
X38459288Y-46834426D01*
X38447821Y-46830948D01*
X38429262Y-46823261D01*
X38410195Y-46816170D01*
X38399222Y-46810818D01*
X38388027Y-46806181D01*
X38370427Y-46796774D01*
X38352283Y-46787924D01*
X38341766Y-46781454D01*
X38330949Y-46775672D01*
X38314473Y-46764663D01*
X38297404Y-46754162D01*
X38287460Y-46746613D01*
X38277136Y-46739715D01*
X38261920Y-46727227D01*
X38246082Y-46715206D01*
X38236809Y-46706619D01*
X38227107Y-46698657D01*
X38213303Y-46684853D01*
X38198805Y-46671428D01*
X38190313Y-46661863D01*
X38181343Y-46652893D01*
X38169036Y-46637897D01*
X38156027Y-46623245D01*
X38148429Y-46612788D01*
X38140285Y-46602864D01*
X38129591Y-46586860D01*
X38118154Y-46571118D01*
X38111539Y-46559843D01*
X38104328Y-46549051D01*
X38095320Y-46532198D01*
X38085549Y-46515544D01*
X38080006Y-46503548D01*
X38073819Y-46491973D01*
X38066563Y-46474455D01*
X38058522Y-46457053D01*
X38054125Y-46444426D01*
X38049052Y-46432179D01*
X38043592Y-46414179D01*
X38037332Y-46396204D01*
X38034155Y-46383073D01*
X38030264Y-46370245D01*
X38026618Y-46351916D01*
X38022182Y-46333578D01*
X38020283Y-46320065D01*
X38017638Y-46306769D01*
X38015821Y-46288318D01*
X38013214Y-46269772D01*
X38012636Y-46255988D01*
X38011294Y-46242360D01*
X38011294Y-46223960D01*
X38010516Y-46205396D01*
X38011294Y-46191481D01*
X38011294Y-46177640D01*
X38013084Y-46159466D01*
X38014113Y-46141063D01*
X38016267Y-46127146D01*
X38017638Y-46113231D01*
X38021174Y-46095454D01*
X38023970Y-46077389D01*
X38027509Y-46063607D01*
X38030264Y-46049755D01*
X38035481Y-46032556D01*
X38039994Y-46014981D01*
X38044912Y-46001469D01*
X38049052Y-45987821D01*
X38055870Y-45971359D01*
X38062031Y-45954433D01*
X38068307Y-45941334D01*
X38073819Y-45928027D01*
X38082158Y-45912426D01*
X38089872Y-45896326D01*
X38097466Y-45883786D01*
X38104328Y-45870949D01*
X38114081Y-45856353D01*
X38123250Y-45841212D01*
X38132122Y-45829353D01*
X38140285Y-45817136D01*
X38151325Y-45803683D01*
X38161847Y-45789619D01*
X38171931Y-45778576D01*
X38181343Y-45767107D01*
X38193544Y-45754906D01*
X38205294Y-45742038D01*
X38216519Y-45731931D01*
X38227107Y-45721343D01*
X38240335Y-45710487D01*
X38253177Y-45698924D01*
X38265452Y-45689874D01*
X38277136Y-45680285D01*
X38291252Y-45670853D01*
X38305038Y-45660688D01*
X38318264Y-45652804D01*
X38330949Y-45644328D01*
X38345794Y-45636393D01*
X38360384Y-45627696D01*
X38374429Y-45621087D01*
X38388027Y-45613819D01*
X38403448Y-45607431D01*
X38418684Y-45600262D01*
X38433451Y-45595004D01*
X38447821Y-45589052D01*
X38463656Y-45584248D01*
X38479384Y-45578648D01*
X38494728Y-45574822D01*
X38509755Y-45570264D01*
X38525846Y-45567063D01*
X38541902Y-45563060D01*
X38557699Y-45560727D01*
X38573231Y-45557638D01*
X38589423Y-45556043D01*
X38605644Y-45553648D01*
X38621728Y-45552861D01*
X38637640Y-45551294D01*
X38653768Y-45551294D01*
X38670000Y-45550500D01*
X40670000Y-45550500D01*
X40679208Y-45550564D01*
G37*
%TD.AperFunction*%
D10*
X38670000Y-46210000D03*
X40670000Y-46210000D03*
%TD*%
D12*
%TO.P,EN,1*%
%TO.N,Net-(EN1-Pad1)*%
X70730000Y-50580000D03*
%TD*%
%TO.P,Vin,1*%
%TO.N,Net-(C1-Pad1)*%
X70590000Y-41220000D03*
D13*
%TO.P,Vin,2*%
%TO.N,GND*%
X70590000Y-43760000D03*
%TD*%
%TO.P,Vout,2*%
%TO.N,Net-(C2-Pad1)*%
X39550000Y-44240000D03*
D12*
%TO.P,Vout,1*%
%TO.N,GND*%
X39550000Y-46780000D03*
%TD*%
D14*
%TO.N,GND*%
X39550000Y-50968000D03*
X39550000Y-49820000D03*
X51327500Y-45777500D03*
X52130000Y-45310000D03*
X53180000Y-45310000D03*
X50282500Y-45777500D03*
X70590000Y-46250000D03*
X70032500Y-47117500D03*
X68892500Y-47117500D03*
X67842500Y-47117500D03*
%TD*%
D15*
%TO.N,GND*%
X75460001Y-55140000D02*
X36140000Y-55140000D01*
X36140000Y-46952500D01*
X37342428Y-46952500D01*
X37342428Y-48271500D01*
X37354688Y-48395982D01*
X37390998Y-48515680D01*
X37449963Y-48625994D01*
X37529315Y-48722685D01*
X37626006Y-48802037D01*
X37736320Y-48861002D01*
X37856018Y-48897312D01*
X37980500Y-48909572D01*
X38272428Y-48909572D01*
X38272428Y-49249500D01*
X38284688Y-49373982D01*
X38320998Y-49493680D01*
X38379963Y-49603994D01*
X38459315Y-49700685D01*
X38556006Y-49780037D01*
X38666320Y-49839002D01*
X38786018Y-49875312D01*
X38910500Y-49887572D01*
X40229500Y-49887572D01*
X40353982Y-49875312D01*
X40473680Y-49839002D01*
X40583994Y-49780037D01*
X40644964Y-49730000D01*
X69241928Y-49730000D01*
X69241928Y-51430000D01*
X69254188Y-51554482D01*
X69290498Y-51674180D01*
X69349463Y-51784494D01*
X69428815Y-51881185D01*
X69525506Y-51960537D01*
X69635820Y-52019502D01*
X69755518Y-52055812D01*
X69880000Y-52068072D01*
X71580000Y-52068072D01*
X71704482Y-52055812D01*
X71824180Y-52019502D01*
X71934494Y-51960537D01*
X72031185Y-51881185D01*
X72110537Y-51784494D01*
X72169502Y-51674180D01*
X72205812Y-51554482D01*
X72218072Y-51430000D01*
X72218072Y-49730000D01*
X72205812Y-49605518D01*
X72169502Y-49485820D01*
X72110537Y-49375506D01*
X72031185Y-49278815D01*
X71934494Y-49199463D01*
X71824180Y-49140498D01*
X71704482Y-49104188D01*
X71580000Y-49091928D01*
X69880000Y-49091928D01*
X69755518Y-49104188D01*
X69635820Y-49140498D01*
X69525506Y-49199463D01*
X69428815Y-49278815D01*
X69349463Y-49375506D01*
X69290498Y-49485820D01*
X69254188Y-49605518D01*
X69241928Y-49730000D01*
X40644964Y-49730000D01*
X40680685Y-49700685D01*
X40760037Y-49603994D01*
X40819002Y-49493680D01*
X40855312Y-49373982D01*
X40867572Y-49249500D01*
X40867572Y-48909572D01*
X41299500Y-48909572D01*
X41423982Y-48897312D01*
X41543680Y-48861002D01*
X41653994Y-48802037D01*
X41750685Y-48722685D01*
X41830037Y-48625994D01*
X41889002Y-48515680D01*
X41925312Y-48395982D01*
X41937572Y-48271500D01*
X41937572Y-47052463D01*
X41955312Y-46993982D01*
X41967572Y-46869500D01*
X41967572Y-45550500D01*
X41955312Y-45426018D01*
X41919002Y-45306320D01*
X41860037Y-45196006D01*
X41780685Y-45099315D01*
X41683994Y-45019963D01*
X41573680Y-44960998D01*
X41453982Y-44924688D01*
X41329500Y-44912428D01*
X40878824Y-44912428D01*
X40977932Y-44673158D01*
X41035000Y-44386260D01*
X41035000Y-44093740D01*
X41010486Y-43970500D01*
X68292428Y-43970500D01*
X68292428Y-45289500D01*
X68304688Y-45413982D01*
X68340998Y-45533680D01*
X68399963Y-45643994D01*
X68479315Y-45740685D01*
X68576006Y-45820037D01*
X68686320Y-45879002D01*
X68806018Y-45915312D01*
X68930500Y-45927572D01*
X72249500Y-45927572D01*
X72373982Y-45915312D01*
X72493680Y-45879002D01*
X72603994Y-45820037D01*
X72700685Y-45740685D01*
X72780037Y-45643994D01*
X72839002Y-45533680D01*
X72875312Y-45413982D01*
X72887572Y-45289500D01*
X72887572Y-44239183D01*
X72900037Y-44223994D01*
X72959002Y-44113680D01*
X72995312Y-43993982D01*
X73007572Y-43869500D01*
X73007572Y-42550500D01*
X72995312Y-42426018D01*
X72959002Y-42306320D01*
X72900037Y-42196006D01*
X72820685Y-42099315D01*
X72723994Y-42019963D01*
X72613680Y-41960998D01*
X72493982Y-41924688D01*
X72369500Y-41912428D01*
X72078072Y-41912428D01*
X72078072Y-40370000D01*
X72065812Y-40245518D01*
X72029502Y-40125820D01*
X71970537Y-40015506D01*
X71891185Y-39918815D01*
X71794494Y-39839463D01*
X71684180Y-39780498D01*
X71564482Y-39744188D01*
X71440000Y-39731928D01*
X69740000Y-39731928D01*
X69615518Y-39744188D01*
X69495820Y-39780498D01*
X69385506Y-39839463D01*
X69288815Y-39918815D01*
X69209463Y-40015506D01*
X69150498Y-40125820D01*
X69114188Y-40245518D01*
X69101928Y-40370000D01*
X69101928Y-41912428D01*
X69050500Y-41912428D01*
X68926018Y-41924688D01*
X68806320Y-41960998D01*
X68696006Y-42019963D01*
X68599315Y-42099315D01*
X68519963Y-42196006D01*
X68460998Y-42306320D01*
X68424688Y-42426018D01*
X68412428Y-42550500D01*
X68412428Y-43600817D01*
X68399963Y-43616006D01*
X68340998Y-43726320D01*
X68304688Y-43846018D01*
X68292428Y-43970500D01*
X41010486Y-43970500D01*
X40977932Y-43806842D01*
X40865990Y-43536589D01*
X40703475Y-43293368D01*
X40496632Y-43086525D01*
X40253411Y-42924010D01*
X39983158Y-42812068D01*
X39696260Y-42755000D01*
X39403740Y-42755000D01*
X39116842Y-42812068D01*
X38846589Y-42924010D01*
X38603368Y-43086525D01*
X38396525Y-43293368D01*
X38234010Y-43536589D01*
X38122068Y-43806842D01*
X38065000Y-44093740D01*
X38065000Y-44386260D01*
X38122068Y-44673158D01*
X38221176Y-44912428D01*
X38010500Y-44912428D01*
X37886018Y-44924688D01*
X37766320Y-44960998D01*
X37656006Y-45019963D01*
X37559315Y-45099315D01*
X37479963Y-45196006D01*
X37420998Y-45306320D01*
X37384688Y-45426018D01*
X37372428Y-45550500D01*
X37372428Y-46769537D01*
X37354688Y-46828018D01*
X37342428Y-46952500D01*
X36140000Y-46952500D01*
X36140000Y-36140000D01*
X75460000Y-36140000D01*
X75460001Y-55140000D01*
%TA.AperFunction,Conductor*%
D16*
G36*
X75460001Y-55140000D02*
G01*
X36140000Y-55140000D01*
X36140000Y-46952500D01*
X37342428Y-46952500D01*
X37342428Y-48271500D01*
X37354688Y-48395982D01*
X37390998Y-48515680D01*
X37449963Y-48625994D01*
X37529315Y-48722685D01*
X37626006Y-48802037D01*
X37736320Y-48861002D01*
X37856018Y-48897312D01*
X37980500Y-48909572D01*
X38272428Y-48909572D01*
X38272428Y-49249500D01*
X38284688Y-49373982D01*
X38320998Y-49493680D01*
X38379963Y-49603994D01*
X38459315Y-49700685D01*
X38556006Y-49780037D01*
X38666320Y-49839002D01*
X38786018Y-49875312D01*
X38910500Y-49887572D01*
X40229500Y-49887572D01*
X40353982Y-49875312D01*
X40473680Y-49839002D01*
X40583994Y-49780037D01*
X40644964Y-49730000D01*
X69241928Y-49730000D01*
X69241928Y-51430000D01*
X69254188Y-51554482D01*
X69290498Y-51674180D01*
X69349463Y-51784494D01*
X69428815Y-51881185D01*
X69525506Y-51960537D01*
X69635820Y-52019502D01*
X69755518Y-52055812D01*
X69880000Y-52068072D01*
X71580000Y-52068072D01*
X71704482Y-52055812D01*
X71824180Y-52019502D01*
X71934494Y-51960537D01*
X72031185Y-51881185D01*
X72110537Y-51784494D01*
X72169502Y-51674180D01*
X72205812Y-51554482D01*
X72218072Y-51430000D01*
X72218072Y-49730000D01*
X72205812Y-49605518D01*
X72169502Y-49485820D01*
X72110537Y-49375506D01*
X72031185Y-49278815D01*
X71934494Y-49199463D01*
X71824180Y-49140498D01*
X71704482Y-49104188D01*
X71580000Y-49091928D01*
X69880000Y-49091928D01*
X69755518Y-49104188D01*
X69635820Y-49140498D01*
X69525506Y-49199463D01*
X69428815Y-49278815D01*
X69349463Y-49375506D01*
X69290498Y-49485820D01*
X69254188Y-49605518D01*
X69241928Y-49730000D01*
X40644964Y-49730000D01*
X40680685Y-49700685D01*
X40760037Y-49603994D01*
X40819002Y-49493680D01*
X40855312Y-49373982D01*
X40867572Y-49249500D01*
X40867572Y-48909572D01*
X41299500Y-48909572D01*
X41423982Y-48897312D01*
X41543680Y-48861002D01*
X41653994Y-48802037D01*
X41750685Y-48722685D01*
X41830037Y-48625994D01*
X41889002Y-48515680D01*
X41925312Y-48395982D01*
X41937572Y-48271500D01*
X41937572Y-47052463D01*
X41955312Y-46993982D01*
X41967572Y-46869500D01*
X41967572Y-45550500D01*
X41955312Y-45426018D01*
X41919002Y-45306320D01*
X41860037Y-45196006D01*
X41780685Y-45099315D01*
X41683994Y-45019963D01*
X41573680Y-44960998D01*
X41453982Y-44924688D01*
X41329500Y-44912428D01*
X40878824Y-44912428D01*
X40977932Y-44673158D01*
X41035000Y-44386260D01*
X41035000Y-44093740D01*
X41010486Y-43970500D01*
X68292428Y-43970500D01*
X68292428Y-45289500D01*
X68304688Y-45413982D01*
X68340998Y-45533680D01*
X68399963Y-45643994D01*
X68479315Y-45740685D01*
X68576006Y-45820037D01*
X68686320Y-45879002D01*
X68806018Y-45915312D01*
X68930500Y-45927572D01*
X72249500Y-45927572D01*
X72373982Y-45915312D01*
X72493680Y-45879002D01*
X72603994Y-45820037D01*
X72700685Y-45740685D01*
X72780037Y-45643994D01*
X72839002Y-45533680D01*
X72875312Y-45413982D01*
X72887572Y-45289500D01*
X72887572Y-44239183D01*
X72900037Y-44223994D01*
X72959002Y-44113680D01*
X72995312Y-43993982D01*
X73007572Y-43869500D01*
X73007572Y-42550500D01*
X72995312Y-42426018D01*
X72959002Y-42306320D01*
X72900037Y-42196006D01*
X72820685Y-42099315D01*
X72723994Y-42019963D01*
X72613680Y-41960998D01*
X72493982Y-41924688D01*
X72369500Y-41912428D01*
X72078072Y-41912428D01*
X72078072Y-40370000D01*
X72065812Y-40245518D01*
X72029502Y-40125820D01*
X71970537Y-40015506D01*
X71891185Y-39918815D01*
X71794494Y-39839463D01*
X71684180Y-39780498D01*
X71564482Y-39744188D01*
X71440000Y-39731928D01*
X69740000Y-39731928D01*
X69615518Y-39744188D01*
X69495820Y-39780498D01*
X69385506Y-39839463D01*
X69288815Y-39918815D01*
X69209463Y-40015506D01*
X69150498Y-40125820D01*
X69114188Y-40245518D01*
X69101928Y-40370000D01*
X69101928Y-41912428D01*
X69050500Y-41912428D01*
X68926018Y-41924688D01*
X68806320Y-41960998D01*
X68696006Y-42019963D01*
X68599315Y-42099315D01*
X68519963Y-42196006D01*
X68460998Y-42306320D01*
X68424688Y-42426018D01*
X68412428Y-42550500D01*
X68412428Y-43600817D01*
X68399963Y-43616006D01*
X68340998Y-43726320D01*
X68304688Y-43846018D01*
X68292428Y-43970500D01*
X41010486Y-43970500D01*
X40977932Y-43806842D01*
X40865990Y-43536589D01*
X40703475Y-43293368D01*
X40496632Y-43086525D01*
X40253411Y-42924010D01*
X39983158Y-42812068D01*
X39696260Y-42755000D01*
X39403740Y-42755000D01*
X39116842Y-42812068D01*
X38846589Y-42924010D01*
X38603368Y-43086525D01*
X38396525Y-43293368D01*
X38234010Y-43536589D01*
X38122068Y-43806842D01*
X38065000Y-44093740D01*
X38065000Y-44386260D01*
X38122068Y-44673158D01*
X38221176Y-44912428D01*
X38010500Y-44912428D01*
X37886018Y-44924688D01*
X37766320Y-44960998D01*
X37656006Y-45019963D01*
X37559315Y-45099315D01*
X37479963Y-45196006D01*
X37420998Y-45306320D01*
X37384688Y-45426018D01*
X37372428Y-45550500D01*
X37372428Y-46769537D01*
X37354688Y-46828018D01*
X37342428Y-46952500D01*
X36140000Y-46952500D01*
X36140000Y-36140000D01*
X75460000Y-36140000D01*
X75460001Y-55140000D01*
G37*
%TD.AperFunction*%
%TD*%
M02*
